<svg xmlns="http://www.w3.org/2000/svg" viewBox="0 0 128 128" role="img" aria-labelledby="title desc">
  <title id="title">sh0TT 临时头像</title>
  <desc id="desc">带有等高线纹理的抽象人物剪影</desc>
  <defs>
    <linearGradient id="ground" x1="0" y1="0" x2="1" y2="1">
      <stop stop-color="#152323" />
      <stop offset="1" stop-color="#07090a" />
    </linearGradient>
    <linearGradient id="figure" x1="0" y1="0" x2="0" y2="1">
      <stop stop-color="#dce6e2" />
      <stop offset="1" stop-color="#6b8783" />
    </linearGradient>
    <pattern id="grid" width="16" height="16" patternUnits="userSpaceOnUse">
      <path d="M16 0H0V16" fill="none" stroke="#55e6dc" stroke-opacity=".12" />
    </pattern>
  </defs>
  <rect width="128" height="128" fill="url(#ground)" />
  <rect width="128" height="128" fill="url(#grid)" />
  <path d="M-5 31c24-17 40 13 65-2s42-10 73 2M-8 48c27-16 46 13 70-1s42-9 75 4M-5 92c24-16 42 14 68 0s43-10 72 1" fill="none" stroke="#55e6dc" stroke-opacity=".22" />
  <circle cx="64" cy="46" r="22" fill="url(#figure)" />
  <path d="M24 116c2-28 17-44 40-44s38 16 40 44" fill="url(#figure)" />
  <path d="M20 111h88M26 101h76" stroke="#07090a" stroke-opacity=".45" />
  <path d="M9 9h20M9 9v20M119 99v20H99" fill="none" stroke="#55e6dc" stroke-width="2" />
  <text x="10" y="119" fill="#55e6dc" font-family="monospace" font-size="8" letter-spacing="2">S0 / TMP</text>
</svg>
